<?xml version="1.0" encoding="iso-8859-1"?>
<!-- Generator: Adobe Illustrator 16.0.0, SVG Export Plug-In . SVG Version: 6.00 Build 0)  -->
<!DOCTYPE svg PUBLIC "-//W3C//DTD SVG 1.1//EN" "http://www.w3.org/Graphics/SVG/1.1/DTD/svg11.dtd">
<svg version="1.1" id="Layer_1" xmlns="http://www.w3.org/2000/svg" xmlns:xlink="http://www.w3.org/1999/xlink" x="0px" y="0px"
	 width="22.357px" height="32px" viewBox="0 0 22.357 32" style="enable-background:new 0 0 22.357 32;" xml:space="preserve">
<g>
	<path style="fill:#231F20;" d="M21.581,19.833v-1.122v-0.044v-1.37v-0.021V15.86v-1.436v-2.763h-1.437h-1.381h-0.056h-1.381h0
		H16.03h-0.14h-4.704H11.17H6.467h-0.14H5.031h0H3.649H3.594H2.213H0.777v2.763v1.436v1.415v0.021v1.37v0.044v1.122
		C0.307,20.095,0,20.491,0,20.939c0,0.397,0.235,0.756,0.615,1.016c0.257-0.462,0.776-0.778,1.376-0.778
		c0.637,0,1.184,0.356,1.421,0.865c0.462-0.262,0.755-0.659,0.755-1.103c0-0.401-0.242-0.763-0.629-1.022v-1.206v-0.044v-1.37
		v-0.021V15.86v-1.436h0.055h0.055h1.381h0.058h0.104h1.134v6.745H6.321v1.513v1.514v1.513v1.514v0.833
		c-1.625,0.228-2.873,1.537-2.873,3.123c0,0.284,0.041,0.559,0.116,0.82h3.215V32h3.225c0.075-0.262,0.116-0.537,0.116-0.821
		c0-1.113-0.616-2.089-1.545-2.652v-1.305v-1.514v-1.513v-1.514v-1.398h2.596h0.016h2.596v1.398v1.514v1.513v1.514v1.305
		c-0.929,0.563-1.545,1.539-1.545,2.652c0,0.284,0.041,0.559,0.116,0.821h3.225v-0.002h3.215c0.075-0.262,0.116-0.537,0.116-0.82
		c0-1.586-1.248-2.895-2.873-3.123v-0.833v-1.514v-1.513v-1.514v-1.513H16.03v-6.745h1.134h0.105h0.058h1.381h0.056h0.055v1.436
		v1.415v0.021v1.37v0.044v1.206c-0.388,0.26-0.629,0.621-0.629,1.022c0,0.444,0.294,0.84,0.756,1.103
		c0.237-0.509,0.784-0.865,1.421-0.865c0.6,0,1.12,0.316,1.376,0.778c0.38-0.26,0.615-0.619,0.615-1.016
		C22.357,20.491,22.05,20.095,21.581,19.833z M11.237,19.55c-0.02,0-0.04-0.002-0.059-0.003c-0.02,0-0.039,0.003-0.059,0.003
		c-1.696,0-3.077-1.38-3.077-3.077s1.38-3.077,3.077-3.077c0.02,0,0.039,0.002,0.059,0.003c0.02-0.001,0.039-0.003,0.059-0.003
		c1.696,0,3.076,1.38,3.076,3.077S12.934,19.55,11.237,19.55z"/>
	<path style="fill:#231F20;" d="M11.237,14.195c-0.017,0-0.034,0.001-0.051,0.003v0c-0.003,0-0.005,0-0.008,0
		c-0.002,0-0.005,0-0.008,0v0c-0.017-0.001-0.034-0.003-0.051-0.003c-1.256,0-2.278,1.022-2.278,2.278s1.022,2.278,2.278,2.278
		c0.017,0,0.034-0.001,0.051-0.002v-0.001c0.003,0,0.005,0,0.008,0c0.003,0,0.005,0,0.008,0v0.001
		c0.017,0.001,0.034,0.002,0.051,0.002c1.256,0,2.278-1.022,2.278-2.278S12.493,14.195,11.237,14.195z M11.237,18.024
		c-0.02,0-0.04-0.002-0.059-0.003c-0.02,0.001-0.039,0.003-0.059,0.003c-0.856,0-1.551-0.695-1.551-1.551s0.694-1.551,1.551-1.551
		c0.02,0,0.039,0.001,0.059,0.002c0.02-0.001,0.039-0.002,0.059-0.002c0.856,0,1.551,0.694,1.551,1.551S12.094,18.024,11.237,18.024
		z"/>
	<path style="fill:#231F20;" d="M14.942,11.096c0.041-0.219,0.062-0.441,0.062-0.665c0-2.027-1.672-3.698-3.744-3.76l-0.071,0
		c-0.001,0-0.002,0-0.002,0v0.001c-0.003,0-0.005,0-0.008,0c-0.002,0-0.005,0-0.008,0V6.672c0,0-0.001,0-0.002,0l-0.071,0
		c-2.072,0.062-3.744,1.733-3.744,3.76c0,0.223,0.021,0.445,0.062,0.665H8.61c-0.022-0.135-0.036-0.273-0.036-0.415
		c0-1.397,1.153-2.531,2.581-2.545v0.001c0.008,0,0.016,0.001,0.023,0.002c0.008,0,0.016-0.001,0.024-0.002V8.136
		c1.428,0.015,2.581,1.148,2.581,2.545c0,0.142-0.014,0.28-0.036,0.415H14.942z"/>
	<path style="fill:#231F20;" d="M6.606,11.096c-0.034-0.22-0.052-0.442-0.052-0.665c0-2.489,2.07-4.535,4.615-4.561h0.001h0.008
		h0.008h0.001c2.544,0.026,4.614,2.072,4.614,4.561c0,0.223-0.019,0.445-0.052,0.665h1.203c0.124-0.45,0.191-0.921,0.191-1.407
		c0-3.014-2.523-5.468-5.699-5.628V1.953c0.455-0.088,0.798-0.487,0.798-0.967C12.244,0.441,11.803,0,11.258,0
		c-0.027,0-0.132,0-0.16,0c-0.544,0-0.986,0.441-0.986,0.986c0,0.48,0.344,0.879,0.798,0.967v2.107
		C7.736,4.221,5.212,6.675,5.212,9.689c0,0.486,0.068,0.957,0.192,1.407H6.606z"/>
</g>
<g>
</g>
<g>
</g>
<g>
</g>
<g>
</g>
<g>
</g>
<g>
</g>
<g>
</g>
<g>
</g>
<g>
</g>
<g>
</g>
<g>
</g>
<g>
</g>
<g>
</g>
<g>
</g>
<g>
</g>
</svg>
