<?xml version="1.0" encoding="iso-8859-1"?>
<!-- Generator: Adobe Illustrator 16.0.0, SVG Export Plug-In . SVG Version: 6.00 Build 0)  -->
<!DOCTYPE svg PUBLIC "-//W3C//DTD SVG 1.1//EN" "http://www.w3.org/Graphics/SVG/1.1/DTD/svg11.dtd">
<svg version="1.1" id="Layer_1" xmlns="http://www.w3.org/2000/svg" xmlns:xlink="http://www.w3.org/1999/xlink" x="0px" y="0px"
	 width="23.649px" height="32px" viewBox="0 0 23.649 32" style="enable-background:new 0 0 23.649 32;" xml:space="preserve">
<g>
	<path style="fill:#231F20;" d="M23.331,21.991h-0.028v-0.673h-0.224v-9.511c0-0.028,0.003-0.056,0.003-0.083
		c0-2.358-2.277-4.414-5.649-5.496c-1.719,0-3.695,0-5.608,0s-3.89,0-5.609,0C2.844,7.31,0.566,9.366,0.566,11.724
		c0,0.028,0.003,0.055,0.004,0.083v9.511H0.346v0.673H0.318H0v1.851h0.848v-0.925h1.537v0.925h0.849v-1.851H2.827v-0.673H2.603
		v-5.957c0.904,0.727,2.072,1.339,3.424,1.793c-0.19,0.283-0.295,0.584-0.295,0.897c0,1.227,1.581,2.278,3.823,2.715
		c-1.026,0.305-1.694,0.8-1.694,1.361c0,0.671,0.956,1.248,2.335,1.517H5.554c-0.237,0-0.455,0.077-0.634,0.204
		c-0.33,0.219-0.548,0.594-0.548,1.019v4.746C3.429,30.062,2.784,30.961,2.784,32c2.998,0,1.49,0,5.896,0
		c0-1.136-0.771-2.105-1.861-2.501v-3.662h5.006h5.005v3.662c-1.088,0.396-1.86,1.365-1.86,2.501c4.406,0,2.899,0,5.896,0
		c0-1.039-0.646-1.938-1.589-2.387v-4.746c0-0.425-0.217-0.799-0.547-1.019c-0.179-0.127-0.397-0.204-0.634-0.204h-4.643
		c1.38-0.269,2.335-0.846,2.335-1.517c0-0.561-0.668-1.056-1.694-1.361c2.243-0.437,3.824-1.488,3.824-2.715
		c0-0.313-0.106-0.614-0.295-0.897c1.352-0.454,2.519-1.067,3.424-1.793v5.957h-0.224v0.673h-0.407v1.851h0.848v-0.925h1.537v0.925
		h0.848v-1.851H23.331z"/>
	<path style="fill:#231F20;" d="M17.402,5.514C17.402,2.469,14.934,0,11.888,0c-0.021,0-0.042,0.003-0.063,0.003
		C11.803,0.003,11.783,0,11.762,0C8.716,0,6.247,2.469,6.247,5.514c3.626,0,3.729,0,5.578,0S13.776,5.514,17.402,5.514z
		 M9.901,2.926c0-1.142,0.926-2.068,2.068-2.068c1.142,0,2.067,0.926,2.067,2.068c0,1.143-0.926,2.068-2.067,2.068
		C10.828,4.994,9.901,4.068,9.901,2.926z"/>
	<path style="fill:#231F20;" d="M13.051,2.926c0-0.597-0.485-1.081-1.082-1.081c-0.043,0-0.084,0.003-0.125,0.007
		C11.922,1.96,11.97,2.09,11.97,2.233c0,0.359-0.291,0.65-0.65,0.65c-0.157,0-0.301-0.059-0.413-0.152
		c-0.012,0.063-0.019,0.129-0.019,0.195c0,0.598,0.484,1.082,1.082,1.082C12.566,4.007,13.051,3.524,13.051,2.926z"/>
</g>
<g>
</g>
<g>
</g>
<g>
</g>
<g>
</g>
<g>
</g>
<g>
</g>
<g>
</g>
<g>
</g>
<g>
</g>
<g>
</g>
<g>
</g>
<g>
</g>
<g>
</g>
<g>
</g>
<g>
</g>
</svg>
