<?xml version="1.0" encoding="iso-8859-1"?>
<!-- Generator: Adobe Illustrator 16.0.0, SVG Export Plug-In . SVG Version: 6.00 Build 0)  -->
<!DOCTYPE svg PUBLIC "-//W3C//DTD SVG 1.1//EN" "http://www.w3.org/Graphics/SVG/1.1/DTD/svg11.dtd">
<svg version="1.1" id="Layer_1" xmlns="http://www.w3.org/2000/svg" xmlns:xlink="http://www.w3.org/1999/xlink" x="0px" y="0px"
	 width="19.595px" height="35.668px" viewBox="0 0 19.595 35.668" style="enable-background:new 0 0 19.595 35.668;"
	 xml:space="preserve">
<g>
	<path style="fill:#231F20;" d="M5.49,26.663h2.203c0.365,0,0.66-0.295,0.66-0.66v-0.339c0-0.364-0.295-0.66-0.66-0.66H5.49
		c-0.365,0-0.66,0.296-0.66,0.66v0.339C4.83,26.367,5.125,26.663,5.49,26.663z"/>
	<path style="fill:#231F20;" d="M4.83,27.945c0,0.365,0.295,0.66,0.66,0.66h2.203c0.365,0,0.66-0.295,0.66-0.66v-0.338
		c0-0.365-0.295-0.66-0.66-0.66H5.49c-0.365,0-0.66,0.295-0.66,0.66V27.945z"/>
	<path style="fill:#231F20;" d="M4.83,29.878c0,0.364,0.295,0.66,0.66,0.66h2.203c0.365,0,0.66-0.296,0.66-0.66V29.54
		c0-0.365-0.295-0.661-0.66-0.661H5.49c-0.365,0-0.66,0.296-0.66,0.661V29.878z"/>
	<path style="fill:#231F20;" d="M4.83,31.82c0,0.365,0.295,0.661,0.66,0.661h2.203c0.365,0,0.66-0.296,0.66-0.661v-0.338
		c0-0.365-0.295-0.661-0.66-0.661H5.49c-0.365,0-0.66,0.296-0.66,0.661V31.82z"/>
	<path style="fill:#231F20;" d="M2.36,13.707H0.746C0.334,13.707,0,14.041,0,14.453v0.383c0,0.413,0.334,0.747,0.746,0.747H2.36
		c0.412,0,0.746-0.334,0.746-0.747v-0.383C3.106,14.041,2.772,13.707,2.36,13.707z"/>
	<path style="fill:#231F20;" d="M2.36,15.904H0.746C0.334,15.904,0,16.239,0,16.651v0.383c0,0.413,0.334,0.747,0.746,0.747H2.36
		c0.412,0,0.746-0.334,0.746-0.747v-0.383C3.106,16.239,2.772,15.904,2.36,15.904z"/>
	<path style="fill:#231F20;" d="M2.36,18.09H0.746C0.334,18.09,0,18.424,0,18.836v0.382c0,0.413,0.334,0.747,0.746,0.747H2.36
		c0.412,0,0.746-0.334,0.746-0.747v-0.382C3.106,18.424,2.772,18.09,2.36,18.09z"/>
	<path style="fill:#231F20;" d="M2.36,20.287H0.746C0.334,20.287,0,20.622,0,21.034v0.382c0,0.413,0.334,0.747,0.746,0.747H2.36
		c0.412,0,0.746-0.334,0.746-0.747v-0.382C3.106,20.622,2.772,20.287,2.36,20.287z"/>
	<path style="fill:#231F20;" d="M7.336,32.936h-1.49c-1.135,0-2.055,0.92-2.055,2.055v0.678h5.599V34.99
		C9.391,33.855,8.471,32.936,7.336,32.936z"/>
	<circle style="fill:#231F20;" cx="1.595" cy="23.767" r="1.237"/>
	<path style="fill:#231F20;" d="M2.215,1.075c0.042,0,0.082-0.005,0.121-0.014l2.86,4.256c-0.41,0.358-0.671,0.884-0.671,1.471v2.54
		c0,1.078,0.875,1.953,1.954,1.953h3.317h0.003h3.317c1.079,0,1.953-0.875,1.953-1.953v-2.54c0-0.587-0.261-1.113-0.671-1.471
		l2.86-4.256c0.039,0.009,0.079,0.014,0.121,0.014c0.296,0,0.537-0.241,0.537-0.538C17.917,0.241,17.676,0,17.379,0
		c-0.297,0-0.538,0.241-0.538,0.538c0,0.073,0.014,0.143,0.042,0.207l-2.891,4.3c-0.264-0.133-0.561-0.209-0.877-0.209H9.799H9.795
		H6.479c-0.316,0-0.613,0.077-0.876,0.209l-2.891-4.3C2.737,0.681,2.752,0.61,2.752,0.538C2.752,0.241,2.512,0,2.215,0
		S1.677,0.241,1.677,0.538C1.677,0.834,1.918,1.075,2.215,1.075z M11.751,7.357c0.495,0,0.896,0.401,0.896,0.896
		c0,0.495-0.401,0.896-0.896,0.896s-0.896-0.401-0.896-0.896C10.855,7.759,11.256,7.357,11.751,7.357z M7.843,7.357
		c0.495,0,0.896,0.401,0.896,0.896c0,0.495-0.401,0.896-0.896,0.896c-0.495,0-0.896-0.401-0.896-0.896
		C6.947,7.759,7.348,7.357,7.843,7.357z"/>
	<path style="fill:#231F20;" d="M11.505,19.896c-0.043,0.042-0.099,0.064-0.155,0.064s-0.112-0.021-0.155-0.064
		c-0.085-0.086-0.085-0.224,0-0.31l0.391-0.391c-0.439-0.361-0.989-0.591-1.589-0.637v0.591c0,0.114-0.087,0.207-0.199,0.217v0.001
		c0,0-0.001,0-0.001,0c-0.001,0-0.001,0-0.002,0v-0.001c-0.112-0.01-0.199-0.103-0.199-0.217v-0.591
		c-0.6,0.046-1.149,0.276-1.588,0.637l0.391,0.391c0.085,0.086,0.085,0.224,0,0.31c-0.043,0.042-0.099,0.064-0.156,0.064
		c-0.056,0-0.112-0.021-0.155-0.064l-0.395-0.395c-0.45,0.503-0.727,1.166-0.727,1.894h2.628v-0.73c0-0.114,0.087-0.207,0.199-0.217
		v-0.001c0,0,0,0,0.001,0c0.001,0,0.002,0,0.002,0v0.001c0.112,0.01,0.199,0.103,0.199,0.217v0.73h2.629
		c0-0.728-0.276-1.39-0.726-1.894L11.505,19.896z"/>
	<path style="fill:#231F20;" d="M14.166,11.94H9.799H9.795H5.428c-1.079,0-1.953,0.875-1.953,1.953v8.864
		c0,1.079,0.874,1.954,1.953,1.954h4.367h0.003h4.367c1.079,0,1.953-0.875,1.953-1.954v-8.864
		C16.119,12.815,15.245,11.94,14.166,11.94z M11.751,13.499c0.279,0,0.505,0.226,0.505,0.505s-0.226,0.505-0.505,0.505
		s-0.505-0.226-0.505-0.505S11.472,13.499,11.751,13.499z M11.751,14.78c0.279,0,0.505,0.227,0.505,0.505
		c0,0.279-0.226,0.505-0.505,0.505s-0.505-0.226-0.505-0.505C11.246,15.007,11.472,14.78,11.751,14.78z M8.851,13.942
		c0-0.212,0.172-0.383,0.384-0.383h0.561h0.003h0.561c0.212,0,0.383,0.171,0.383,0.383v1.406c0,0.212-0.171,0.384-0.383,0.384H9.799
		H9.795H9.235c-0.211,0-0.384-0.171-0.384-0.384V13.942z M7.843,13.498c0.279,0,0.505,0.227,0.505,0.506s-0.227,0.505-0.505,0.505
		s-0.505-0.226-0.505-0.505S7.564,13.498,7.843,13.498z M7.843,14.78c0.279,0,0.505,0.227,0.505,0.505
		c0,0.279-0.227,0.505-0.505,0.505s-0.505-0.226-0.505-0.505C7.338,15.007,7.564,14.78,7.843,14.78z M6.435,13.498
		c0.279,0,0.505,0.227,0.505,0.506s-0.227,0.505-0.505,0.505s-0.505-0.226-0.505-0.505S6.156,13.498,6.435,13.498z M5.929,15.286
		c0-0.279,0.227-0.505,0.505-0.505s0.505,0.227,0.505,0.505c0,0.279-0.227,0.505-0.505,0.505S5.929,15.565,5.929,15.286z
		 M13.399,22.261H9.795l0,0H6.195c-0.066-0.278-0.103-0.568-0.103-0.867c0-2.047,1.659-3.712,3.704-3.724l0,0
		c0.001,0,0.002,0,0.003,0l0,0c2.044,0.011,3.704,1.677,3.704,3.724C13.502,21.693,13.466,21.983,13.399,22.261z M13.16,15.791
		c-0.279,0-0.505-0.226-0.505-0.505c0-0.278,0.226-0.505,0.505-0.505s0.505,0.227,0.505,0.505
		C13.665,15.565,13.438,15.791,13.16,15.791z M13.16,14.509c-0.279,0-0.505-0.226-0.505-0.505s0.226-0.505,0.505-0.505
		s0.505,0.226,0.505,0.505S13.438,14.509,13.16,14.509z"/>
	<path style="fill:#231F20;" d="M11.901,26.663h2.203c0.365,0,0.661-0.295,0.661-0.66v-0.339c0-0.364-0.296-0.66-0.661-0.66h-2.203
		c-0.365,0-0.661,0.296-0.661,0.66v0.339C11.24,26.367,11.536,26.663,11.901,26.663z"/>
	<path style="fill:#231F20;" d="M11.24,27.945c0,0.365,0.296,0.66,0.661,0.66h2.203c0.365,0,0.661-0.295,0.661-0.66v-0.338
		c0-0.365-0.296-0.66-0.661-0.66h-2.203c-0.365,0-0.661,0.295-0.661,0.66V27.945z"/>
	<path style="fill:#231F20;" d="M11.24,29.878c0,0.364,0.296,0.66,0.661,0.66h2.203c0.365,0,0.661-0.296,0.661-0.66V29.54
		c0-0.365-0.296-0.661-0.661-0.661h-2.203c-0.365,0-0.661,0.296-0.661,0.661V29.878z"/>
	<path style="fill:#231F20;" d="M11.24,31.82c0,0.365,0.296,0.661,0.661,0.661h2.203c0.365,0,0.661-0.296,0.661-0.661v-0.338
		c0-0.365-0.296-0.661-0.661-0.661h-2.203c-0.365,0-0.661,0.296-0.661,0.661V31.82z"/>
	<path style="fill:#231F20;" d="M18.848,13.707h-1.613c-0.413,0-0.747,0.334-0.747,0.746v0.383c0,0.413,0.334,0.747,0.747,0.747
		h1.613c0.413,0,0.747-0.334,0.747-0.747v-0.383C19.595,14.041,19.261,13.707,18.848,13.707z"/>
	<path style="fill:#231F20;" d="M18.848,15.904h-1.613c-0.413,0-0.747,0.334-0.747,0.747v0.383c0,0.413,0.334,0.747,0.747,0.747
		h1.613c0.413,0,0.747-0.334,0.747-0.747v-0.383C19.595,16.239,19.261,15.904,18.848,15.904z"/>
	<path style="fill:#231F20;" d="M18.848,18.09h-1.613c-0.413,0-0.747,0.334-0.747,0.747v0.382c0,0.413,0.334,0.747,0.747,0.747
		h1.613c0.413,0,0.747-0.334,0.747-0.747v-0.382C19.595,18.424,19.261,18.09,18.848,18.09z"/>
	<path style="fill:#231F20;" d="M18.848,20.287h-1.613c-0.413,0-0.747,0.335-0.747,0.747v0.382c0,0.413,0.334,0.747,0.747,0.747
		h1.613c0.413,0,0.747-0.334,0.747-0.747v-0.382C19.595,20.622,19.261,20.287,18.848,20.287z"/>
	<path style="fill:#231F20;" d="M13.748,32.936h-1.49c-1.135,0-2.055,0.92-2.055,2.055v0.678h5.599V34.99
		C15.802,33.855,14.882,32.936,13.748,32.936z"/>
	<circle style="fill:#231F20;" cx="17.999" cy="23.767" r="1.237"/>
</g>
<g>
</g>
<g>
</g>
<g>
</g>
<g>
</g>
<g>
</g>
<g>
</g>
<g>
</g>
<g>
</g>
<g>
</g>
<g>
</g>
<g>
</g>
<g>
</g>
<g>
</g>
<g>
</g>
<g>
</g>
</svg>
