<?xml version="1.0" encoding="iso-8859-1"?>
<!-- Generator: Adobe Illustrator 16.0.0, SVG Export Plug-In . SVG Version: 6.00 Build 0)  -->
<!DOCTYPE svg PUBLIC "-//W3C//DTD SVG 1.1//EN" "http://www.w3.org/Graphics/SVG/1.1/DTD/svg11.dtd">
<svg version="1.1" id="Layer_1" xmlns="http://www.w3.org/2000/svg" xmlns:xlink="http://www.w3.org/1999/xlink" x="0px" y="0px"
	 width="24.629px" height="32px" viewBox="0 0 24.629 32" style="enable-background:new 0 0 24.629 32;" xml:space="preserve">
<g>
	<path style="fill:#231F20;" d="M22.769,20.146c0.025-1.252-0.069-5.132-2.046-7.337c-0.888-0.991-2.023-1.527-3.372-1.595v-0.001
		h-3.135v-0.888c2.887-0.469,5.009-2.033,5.009-3.891c0-1.381-1.174-2.6-2.963-3.328l0.703-1.771
		c0.077,0.029,0.16,0.048,0.247,0.048c0.381,0,0.69-0.309,0.69-0.689c0-0.381-0.309-0.689-0.69-0.689
		c-0.38,0-0.689,0.309-0.689,0.689c0,0.234,0.117,0.44,0.295,0.564l-1.722,1.467c-0.825-0.21-1.734-0.327-2.69-0.327
		c-0.004,0-0.007,0-0.011,0c-0.004,0-0.007,0-0.01,0c-0.949,0-1.852,0.115-2.672,0.322L7.992,1.254
		C8.169,1.129,8.287,0.923,8.287,0.69C8.287,0.309,7.978,0,7.597,0c-0.38,0-0.689,0.309-0.689,0.69c0,0.38,0.309,0.689,0.689,0.689
		c0.088,0,0.17-0.019,0.247-0.048l0.701,1.768c-1.799,0.727-2.98,1.949-2.98,3.335c0,1.862,2.131,3.428,5.028,3.895v0.884H7.244
		v0.004c-1.333,0.074-2.457,0.609-3.337,1.592c-1.977,2.206-2.071,6.085-2.046,7.337C0.78,20.482,0,21.405,0,22.491
		c0,0.021,0.003,0.041,0.004,0.062h1.467c-0.001-0.021-0.005-0.041-0.005-0.062c0-0.562,0.58-1.017,1.292-1.017
		s1.293,0.456,1.293,1.017c0,0.021-0.004,0.041-0.006,0.062h1.467c0-0.021,0.003-0.041,0.003-0.062c0-0.988-0.646-1.841-1.577-2.24
		c-0.051-1.303,0.123-4.509,1.516-6.06c0.481-0.535,1.069-0.825,1.789-0.892v9.118h0.629v2.075
		c-0.374,0.292-0.609,0.711-0.609,1.176c0,0.466,0.235,0.884,0.609,1.177v2.929C7.081,30.2,6.541,31.037,6.541,32
		c2.566,0,1.276,0,5.048,0c0-0.963-0.54-1.8-1.333-2.225v-2.802c0.48-0.291,0.794-0.766,0.794-1.304s-0.314-1.012-0.794-1.303
		v-1.948h4.015v1.948c-0.48,0.291-0.794,0.766-0.794,1.303s0.313,1.013,0.794,1.304v2.802C13.477,30.2,12.938,31.037,12.938,32
		c3.771,0,2.482,0,5.047,0c0-0.963-0.539-1.8-1.333-2.225v-2.929c0.375-0.292,0.611-0.71,0.611-1.177
		c0-0.465-0.236-0.884-0.611-1.176v-2.075h0.699v-9.121c0.737,0.059,1.335,0.351,1.824,0.895c1.393,1.55,1.567,4.757,1.516,6.06
		c-0.931,0.398-1.577,1.251-1.577,2.24c0,0.02,0.003,0.041,0.004,0.062h1.467c-0.001-0.021-0.006-0.042-0.006-0.062
		c0-0.562,0.58-1.017,1.293-1.017c0.712,0,1.292,0.456,1.292,1.017c0,0.02-0.004,0.041-0.005,0.062h1.467
		c0-0.021,0.004-0.042,0.004-0.062C24.629,21.405,23.85,20.482,22.769,20.146z M15.387,4.489c0.647,0,1.171,0.524,1.171,1.171
		s-0.524,1.171-1.171,1.171s-1.171-0.524-1.171-1.171S14.74,4.489,15.387,4.489z M8.25,5.656c0-0.647,0.524-1.171,1.171-1.171
		c0.646,0,1.171,0.524,1.171,1.171s-0.525,1.171-1.171,1.171C8.774,6.828,8.25,6.303,8.25,5.656z M10.186,7.925h2.218v0.003h2.219
		v0.998h-2.219V8.922h-2.218V7.925z M10.725,14.457h5.664v0.657h-5.664V14.457z M10.725,15.799h5.664v0.658h-5.664V15.799z
		 M16.389,13.732h-5.664v-0.657h5.664V13.732z M9.127,19.562c0.472,0,0.855,0.383,0.855,0.855c0,0.17-0.051,0.327-0.136,0.46
		l-1.179-1.179C8.8,19.613,8.958,19.562,9.127,19.562z M8.301,18.287c0-0.169,0.051-0.326,0.137-0.459l1.178,1.178
		c-0.133,0.085-0.29,0.136-0.459,0.136C8.685,19.142,8.301,18.76,8.301,18.287z M9.875,18.747l-1.179-1.179
		c0.133-0.085,0.29-0.136,0.46-0.136c0.472,0,0.855,0.383,0.855,0.854C10.012,18.457,9.96,18.614,9.875,18.747z M8.667,15.423
		c0.133-0.084,0.29-0.136,0.459-0.136c0.472,0,0.855,0.382,0.855,0.855c0,0.169-0.051,0.327-0.136,0.46L8.667,15.423z M9.127,13.075
		c0.472,0,0.855,0.382,0.855,0.854c0,0.169-0.051,0.327-0.136,0.46l-1.179-1.179C8.8,13.126,8.958,13.075,9.127,13.075z
		 M8.408,13.47l1.179,1.179c-0.133,0.085-0.29,0.135-0.46,0.135c-0.472,0-0.854-0.382-0.854-0.854
		C8.272,13.76,8.323,13.603,8.408,13.47z M8.408,15.683l1.179,1.179c-0.133,0.085-0.29,0.136-0.46,0.136
		c-0.472,0-0.854-0.382-0.854-0.854C8.272,15.973,8.323,15.815,8.408,15.683z M8.408,19.957l1.179,1.179
		c-0.133,0.085-0.29,0.136-0.46,0.136c-0.472,0-0.854-0.382-0.854-0.855C8.272,20.247,8.323,20.09,8.408,19.957z M10.725,17.219
		h5.664v4.053h-5.664V17.219z"/>
	<circle style="fill:#231F20;" cx="9.421" cy="5.656" r="0.689"/>
	<circle style="fill:#231F20;" cx="15.387" cy="5.66" r="0.689"/>
</g>
<g>
</g>
<g>
</g>
<g>
</g>
<g>
</g>
<g>
</g>
<g>
</g>
<g>
</g>
<g>
</g>
<g>
</g>
<g>
</g>
<g>
</g>
<g>
</g>
<g>
</g>
<g>
</g>
<g>
</g>
</svg>
