<?xml version="1.0" encoding="iso-8859-1"?>
<!-- Generator: Adobe Illustrator 16.0.0, SVG Export Plug-In . SVG Version: 6.00 Build 0)  -->
<!DOCTYPE svg PUBLIC "-//W3C//DTD SVG 1.1//EN" "http://www.w3.org/Graphics/SVG/1.1/DTD/svg11.dtd">
<svg version="1.1" id="Layer_1" xmlns="http://www.w3.org/2000/svg" xmlns:xlink="http://www.w3.org/1999/xlink" x="0px" y="0px"
	 width="20.687px" height="32px" viewBox="0 0 20.687 32" style="enable-background:new 0 0 20.687 32;" xml:space="preserve">
<g>
	<path style="fill:#231F20;" d="M8.305,29.827v-2.62l-0.188-0.169c-0.226,0.145-0.491,0.236-0.777,0.252
		c-0.03,0.001-0.059,0.002-0.089,0.002c-0.303,0-0.586-0.086-0.829-0.232v2.643C5.468,30.032,4.782,30.935,4.782,32
		c2.474,0,1.231,0,4.866,0C9.648,31.049,9.101,30.227,8.305,29.827z"/>
	<circle style="fill:#231F20;" cx="8.265" cy="6.29" r="0.577"/>
	<path style="fill:#231F20;" d="M8.491,25.617c-0.038-0.686-0.624-1.21-1.309-1.172c-0.249,0.014-0.476,0.1-0.665,0.238l1.809,1.621
		C8.443,26.102,8.504,25.866,8.491,25.617z"/>
	<path style="fill:#231F20;" d="M6.011,25.752c0.037,0.686,0.623,1.21,1.308,1.173c0.207-0.011,0.398-0.073,0.565-0.172L6.12,25.173
		C6.04,25.349,5.999,25.546,6.011,25.752z"/>
	<path style="fill:#231F20;" d="M14.265,29.701v-2.643c-0.242,0.147-0.526,0.232-0.829,0.232c-0.029,0-0.06-0.001-0.088-0.002
		c-0.287-0.015-0.552-0.106-0.777-0.251l-0.188,0.169v2.62c-0.796,0.4-1.344,1.222-1.344,2.173c3.635,0,2.393,0,4.865,0
		C15.903,30.933,15.219,30.03,14.265,29.701z"/>
	<circle style="fill:#231F20;" cx="12.421" cy="6.288" r="0.577"/>
	<path style="fill:#231F20;" d="M12.195,25.615c-0.014,0.25,0.047,0.485,0.164,0.687l1.81-1.621
		c-0.188-0.137-0.416-0.224-0.665-0.238C12.819,24.404,12.232,24.93,12.195,25.615z"/>
	<path style="fill:#231F20;" d="M14.676,25.751c0.011-0.207-0.029-0.404-0.109-0.58l-1.764,1.58
		c0.166,0.099,0.358,0.161,0.564,0.172C14.052,26.961,14.638,26.436,14.676,25.751z"/>
	<path style="fill:#231F20;" d="M3.162,17.058c-0.037-0.679-0.618-1.199-1.297-1.162c-0.247,0.014-0.472,0.1-0.658,0.236L3,17.739
		C3.115,17.539,3.176,17.305,3.162,17.058z"/>
	<path style="fill:#231F20;" d="M2,18.355c0.204-0.011,0.394-0.073,0.559-0.17l-1.748-1.567c-0.08,0.174-0.12,0.37-0.109,0.575
		C0.74,17.872,1.321,18.393,2,18.355z"/>
	<path style="fill:#231F20;" d="M17.524,17.058c-0.014,0.247,0.047,0.481,0.162,0.681l1.794-1.606
		c-0.187-0.136-0.413-0.223-0.659-0.236C18.142,15.859,17.561,16.379,17.524,17.058z"/>
	<path style="fill:#231F20;" d="M18.686,18.355c0.679,0.038,1.26-0.483,1.297-1.162c0.011-0.205-0.029-0.401-0.108-0.575
		l-1.749,1.567C18.292,18.282,18.481,18.344,18.686,18.355z"/>
	<path style="fill:#231F20;" d="M18.842,15.521c0.231,0.013,0.451,0.075,0.651,0.178c-0.545-1.917-2.103-3.517-3.375-3.622
		l-3.325-0.006V10.8h1.618c0,0,1.677-7.21,0-7.21c-0.36,0-0.97,0-1.704,0c-0.234-0.319-0.933-0.569-1.816-0.649
		c0.177-0.5,0.653-1.583,1.556-1.957c0.088,0.341,0.395,0.595,0.763,0.595c0.436,0,0.79-0.354,0.79-0.79C14,0.354,13.647,0,13.211,0
		c-0.322,0-0.597,0.193-0.72,0.469c-1.331,0.379-1.924,1.928-2.088,2.447c-0.021,0-0.041-0.001-0.062-0.001v0.001
		c-0.019,0-0.038,0.001-0.058,0.001C10.12,2.399,9.526,0.85,8.195,0.47c-0.123-0.275-0.398-0.468-0.72-0.468
		c-0.437,0-0.79,0.354-0.79,0.79c0,0.436,0.353,0.79,0.79,0.79c0.368,0,0.675-0.253,0.762-0.594
		c0.903,0.374,1.379,1.457,1.556,1.956c-0.884,0.08-1.583,0.33-1.817,0.648c-0.733,0-1.342,0-1.703,0c-1.678,0,0,7.21,0,7.21h1.619
		v1.271l-3.326,0.004c-1.271,0.105-2.829,1.706-3.374,3.622c0.2-0.103,0.42-0.166,0.651-0.178c0.477-0.026,0.913,0.16,1.224,0.472
		c0.389-1.11,1.258-1.939,1.622-2.035l0.514,7.86h1.216v2.49c0.223-0.134,0.475-0.213,0.742-0.227
		c0.436-0.024,0.838,0.128,1.142,0.393v-2.656h2.04v-0.001h2.037v2.655c0.303-0.264,0.706-0.417,1.142-0.393
		c0.266,0.014,0.519,0.093,0.741,0.227v-2.489h1.216l0.514-7.858c0.364,0.096,1.233,0.925,1.622,2.035
		C17.929,15.681,18.365,15.495,18.842,15.521z M10.341,8.593h1.502v0.941h-1.499v0.002H8.842V8.595h1.499V8.593z M13.696,6.288
		c0,0.704-0.571,1.275-1.275,1.275c-0.703,0-1.275-0.571-1.275-1.275s0.572-1.275,1.275-1.275
		C13.125,5.013,13.696,5.584,13.696,6.288z M6.99,6.29c0-0.704,0.571-1.275,1.274-1.275c0.705,0,1.275,0.572,1.275,1.275
		c0,0.704-0.571,1.275-1.275,1.275C7.561,7.565,6.99,6.994,6.99,6.29z M14.504,20.205H6.686v-0.402h7.818V20.205z M14.504,19.086
		H6.686v-0.402h7.818V19.086z M14.504,17.983H6.686v-0.402h7.818V17.983z M14.504,16.864H6.686v-0.402h7.818V16.864z M14.504,15.746
		H6.686v-0.402h7.818V15.746z M14.504,14.687H6.686v-0.402h7.818V14.687z"/>
	<path style="fill:#231F20;" d="M3.846,22.319c0-0.471-0.381-0.854-0.853-0.854H2.875v-2.918l-0.077-0.068
		c-0.226,0.145-0.49,0.236-0.777,0.252c-0.03,0.002-0.059,0.002-0.089,0.002c-0.351,0-0.675-0.114-0.941-0.307v3.038H0.855
		C0.383,21.462,0.001,21.844,0,22.316c0,0.03,0.006,0.059,0.009,0.088C0.006,22.433,0,22.462,0,22.492l0,1.04
		c0,0.379,0.306,0.687,0.686,0.687c0.379,0.001,0.687-0.307,0.687-0.686l0-0.363l1.119,0.001l0,0.363
		c0,0.379,0.307,0.687,0.686,0.687c0.38,0,0.688-0.307,0.688-0.687l0.001-1.04c0-0.056-0.008-0.109-0.021-0.162
		C3.845,22.329,3.846,22.324,3.846,22.319z"/>
	<path style="fill:#231F20;" d="M20.686,22.492c0.001-0.03-0.005-0.059-0.009-0.088c0.003-0.029,0.009-0.058,0.009-0.088
		c0-0.472-0.382-0.854-0.854-0.853h-0.136v-3.038c-0.265,0.193-0.59,0.307-0.94,0.307c-0.03,0-0.06,0-0.089-0.002
		c-0.287-0.016-0.551-0.107-0.777-0.252l-0.076,0.068v2.918h-0.12c-0.471,0-0.853,0.383-0.853,0.854c0,0.005,0,0.01,0.001,0.015
		c-0.012,0.053-0.021,0.106-0.021,0.162l0.001,1.04c0,0.379,0.308,0.687,0.687,0.687c0.379,0,0.687-0.308,0.687-0.687v-0.363
		l1.118-0.001v0.363c0,0.379,0.308,0.687,0.687,0.686c0.379,0,0.687-0.308,0.686-0.687L20.686,22.492z"/>
</g>
<g>
</g>
<g>
</g>
<g>
</g>
<g>
</g>
<g>
</g>
<g>
</g>
<g>
</g>
<g>
</g>
<g>
</g>
<g>
</g>
<g>
</g>
<g>
</g>
<g>
</g>
<g>
</g>
<g>
</g>
</svg>
