<?xml version="1.0" encoding="iso-8859-1"?>
<!-- Generator: Adobe Illustrator 16.0.0, SVG Export Plug-In . SVG Version: 6.00 Build 0)  -->
<!DOCTYPE svg PUBLIC "-//W3C//DTD SVG 1.1//EN" "http://www.w3.org/Graphics/SVG/1.1/DTD/svg11.dtd">
<svg version="1.1" id="Layer_1" xmlns="http://www.w3.org/2000/svg" xmlns:xlink="http://www.w3.org/1999/xlink" x="0px" y="0px"
	 width="24.283px" height="32px" viewBox="0 0 24.283 32" style="enable-background:new 0 0 24.283 32;" xml:space="preserve">
<circle style="fill:#231F20;" cx="11.772" cy="3.573" r="0.49"/>
<circle style="fill:#231F20;" cx="16.511" cy="3.573" r="0.49"/>
<g>
	<path style="fill:#231F20;" d="M13.771,18.928c0.138,0.438,0.605,0.681,1.043,0.543c0.438-0.139,0.68-0.606,0.542-1.044
		c-0.139-0.438-0.605-0.68-1.043-0.542C13.875,18.023,13.633,18.49,13.771,18.928z M14.485,18.373
		c0.166-0.052,0.343,0.04,0.396,0.205c0.053,0.167-0.04,0.344-0.206,0.396c-0.167,0.053-0.343-0.039-0.396-0.206
		C14.227,18.603,14.319,18.425,14.485,18.373z"/>
	<path style="fill:#231F20;" d="M23.514,4.232c-0.284,0-0.529,0.156-0.664,0.385h-1.652c-0.188-0.475-0.649-0.813-1.19-0.813
		c-0.542,0-1.004,0.338-1.191,0.813H17.57c0-0.007,0.001-0.015,0.001-0.021C17.571,2.058,15.15,0,12.163,0
		c-0.007,0-0.014,0.001-0.021,0.001C12.134,0.001,12.127,0,12.12,0C9.134,0,6.712,2.058,6.712,4.596
		c0,0.007,0.001,0.014,0.001,0.021H5.467C5.279,4.142,4.817,3.804,4.275,3.804c-0.542,0-1.003,0.338-1.19,0.813H1.433
		C1.3,4.388,1.054,4.232,0.77,4.232C0.345,4.232,0,4.577,0,5.001c0,0.425,0.345,0.77,0.77,0.77c0.284,0,0.53-0.156,0.663-0.385
		h1.599C3.167,5.95,3.671,6.37,4.275,6.37S5.384,5.95,5.52,5.387h1.273c0.329,1.605,1.636,2.926,3.381,3.498v1.162H9.106
		c-0.779,0-1.476,0.35-1.947,0.898c-0.244,0-2.914,0-2.959,0c-0.572,0-1.036,0.463-1.036,1.036v8.732H3.025
		c-0.514,0-0.93,0.417-0.93,0.93c0,0.005,0.001,0.011,0.001,0.016c-0.014,0.057-0.023,0.115-0.023,0.176v1.133
		c0,0.414,0.335,0.749,0.749,0.749s0.748-0.335,0.748-0.749v-0.395h1.219v0.395c0,0.414,0.335,0.749,0.748,0.749
		c0.414,0,0.749-0.335,0.749-0.749v-1.133c0-0.033-0.006-0.064-0.01-0.096c0.003-0.032,0.01-0.063,0.01-0.096
		c0-0.514-0.417-0.93-0.93-0.93H5.237v-7.46h1.304v6.584c0,1.014,0.59,1.887,1.443,2.304v7.308C7.02,29.891,6.349,30.865,6.349,32
		c3.136,0,3.364,0,5.59,0c0-1.135-0.672-2.109-1.636-2.552v-7.046h1.838h1.839v7.046c-0.964,0.443-1.636,1.417-1.636,2.552
		c2.226,0,2.454,0,5.59,0c0-1.135-0.671-2.109-1.636-2.552V22.14c0.854-0.417,1.443-1.29,1.443-2.304v-6.584h1.304v7.46h-0.118
		c-0.514,0-0.93,0.417-0.93,0.93c0,0.033,0.007,0.064,0.01,0.096c-0.004,0.032-0.01,0.063-0.01,0.096v1.133
		c0,0.414,0.335,0.749,0.749,0.749s0.749-0.335,0.749-0.749v-0.395h1.218v0.395c0,0.414,0.335,0.749,0.748,0.749
		c0.414,0,0.749-0.335,0.749-0.749v-1.133c0-0.061-0.009-0.119-0.023-0.176c0-0.005,0.002-0.011,0.002-0.016
		c0-0.514-0.417-0.93-0.93-0.93H21.12V11.98c0-0.572-0.464-1.036-1.037-1.036c-0.045,0-2.716,0-2.959,0
		c-0.471-0.549-1.167-0.898-1.947-0.898h-1.068V8.884c1.745-0.572,3.053-1.892,3.381-3.498h1.274
		c0.135,0.563,0.639,0.983,1.244,0.983c0.604,0,1.108-0.42,1.243-0.983h1.599c0.134,0.229,0.379,0.385,0.664,0.385
		c0.424,0,0.77-0.345,0.77-0.77C24.283,4.577,23.938,4.232,23.514,4.232z M8.529,4.04c0-0.625,0.508-1.133,1.133-1.133
		c0.626,0,1.133,0.508,1.133,1.133c0,0.626-0.507,1.133-1.133,1.133C9.037,5.173,8.529,4.666,8.529,4.04z M14.321,16.967l0.059,0.19
		c0.218-0.026,0.439-0.005,0.648,0.062l0.097-0.187c0.01-0.018,0.027-0.032,0.046-0.038c0.02-0.007,0.042-0.005,0.06,0.005
		l0.333,0.173c0.039,0.02,0.054,0.067,0.034,0.106l-0.1,0.19c0.172,0.134,0.313,0.303,0.414,0.495l0.211-0.067
		c0.042-0.013,0.086,0.01,0.099,0.051l0.113,0.357c0.013,0.042-0.009,0.086-0.051,0.1l-0.211,0.066
		c0.027,0.213,0.01,0.431-0.053,0.638l0.196,0.101c0.039,0.02,0.054,0.068,0.033,0.107l-0.173,0.332
		c-0.009,0.019-0.026,0.032-0.046,0.038c-0.02,0.007-0.042,0.005-0.06-0.005l-0.19-0.099c-0.132,0.177-0.303,0.323-0.498,0.428
		l0.066,0.208c0.013,0.042-0.01,0.086-0.052,0.099l-0.357,0.113c-0.041,0.013-0.085-0.01-0.099-0.051l-0.064-0.202
		c-0.22,0.031-0.445,0.013-0.658-0.052l-0.093,0.179c-0.02,0.038-0.067,0.054-0.107,0.034l-0.332-0.173
		c-0.037-0.02-0.053-0.069-0.034-0.106l0.091-0.175c-0.18-0.135-0.328-0.309-0.431-0.508l-0.181,0.057
		c-0.042,0.013-0.086-0.01-0.099-0.052l-0.113-0.356c-0.013-0.042,0.01-0.086,0.052-0.099l0.18-0.057
		c-0.03-0.226-0.008-0.454,0.062-0.669l-0.17-0.089c-0.018-0.009-0.032-0.026-0.039-0.046s-0.004-0.042,0.005-0.06l0.173-0.333
		c0.021-0.038,0.068-0.053,0.106-0.033l0.176,0.091c0.136-0.175,0.31-0.317,0.506-0.417l-0.058-0.184
		c-0.014-0.042,0.009-0.086,0.051-0.099l0.357-0.112C14.263,16.903,14.307,16.925,14.321,16.967z M14.208,14.393l-0.023,0.655
		c-0.002,0.077-0.066,0.137-0.143,0.134l-0.388-0.013c-0.079,0.368-0.235,0.716-0.459,1.02l0.264,0.283
		c0.051,0.056,0.049,0.143-0.006,0.195l-0.479,0.447c-0.026,0.025-0.063,0.038-0.099,0.037c-0.037-0.001-0.072-0.018-0.097-0.044
		l-0.256-0.274c-0.322,0.214-0.688,0.356-1.07,0.415l-0.013,0.382c-0.002,0.076-0.066,0.136-0.142,0.133l-0.655-0.022
		c-0.077-0.003-0.136-0.067-0.133-0.143l0.012-0.371c-0.38-0.077-0.741-0.238-1.056-0.471l-0.258,0.241
		c-0.056,0.052-0.143,0.05-0.195-0.007l-0.447-0.479c-0.05-0.053-0.047-0.145,0.006-0.195l0.252-0.236
		c-0.218-0.329-0.36-0.703-0.415-1.092l-0.331-0.012c-0.076-0.002-0.136-0.066-0.134-0.142l0.023-0.655
		c0.002-0.077,0.066-0.136,0.143-0.133l0.331,0.011c0.082-0.388,0.251-0.753,0.493-1.068l-0.229-0.245
		c-0.024-0.026-0.038-0.063-0.037-0.099c0.001-0.037,0.017-0.072,0.044-0.097l0.479-0.447c0.056-0.052,0.143-0.049,0.195,0.007
		l0.235,0.252c0.328-0.208,0.696-0.342,1.079-0.393l0.011-0.335c0.002-0.076,0.066-0.137,0.143-0.134l0.654,0.022
		c0.076,0.003,0.136,0.067,0.134,0.143l-0.013,0.348c0.375,0.085,0.728,0.249,1.033,0.482l0.269-0.251
		c0.027-0.025,0.063-0.038,0.099-0.037c0.037,0.001,0.071,0.017,0.096,0.043l0.447,0.479c0.052,0.056,0.049,0.144-0.007,0.195
		l-0.275,0.257c0.205,0.32,0.339,0.682,0.393,1.057l0.388,0.013C14.15,14.254,14.21,14.317,14.208,14.393z M13.809,7.299h-1.667
		h-1.667c-0.248,0-0.449-0.201-0.449-0.449c0-0.249,0.201-0.449,0.449-0.449h1.667h1.667c0.248,0,0.449,0.2,0.449,0.449
		C14.258,7.098,14.057,7.299,13.809,7.299z M14.621,5.173c-0.626,0-1.133-0.507-1.133-1.133c0-0.625,0.507-1.133,1.133-1.133
		c0.625,0,1.133,0.508,1.133,1.133C15.754,4.666,15.247,5.173,14.621,5.173z"/>
	<path style="fill:#231F20;" d="M11.125,13.178c-0.803-0.027-1.476,0.601-1.503,1.404c-0.027,0.803,0.601,1.476,1.404,1.504
		c0.803,0.027,1.476-0.602,1.503-1.404C12.557,13.879,11.929,13.205,11.125,13.178z M11.057,15.184
		c-0.305-0.011-0.543-0.267-0.533-0.571c0.011-0.305,0.267-0.543,0.571-0.533c0.305,0.011,0.543,0.266,0.533,0.571
		C11.617,14.956,11.361,15.194,11.057,15.184z"/>
</g>
<g>
</g>
<g>
</g>
<g>
</g>
<g>
</g>
<g>
</g>
<g>
</g>
<g>
</g>
<g>
</g>
<g>
</g>
<g>
</g>
<g>
</g>
<g>
</g>
<g>
</g>
<g>
</g>
<g>
</g>
</svg>
