<?xml version="1.0" encoding="iso-8859-1"?>
<!-- Generator: Adobe Illustrator 16.0.0, SVG Export Plug-In . SVG Version: 6.00 Build 0)  -->
<!DOCTYPE svg PUBLIC "-//W3C//DTD SVG 1.1//EN" "http://www.w3.org/Graphics/SVG/1.1/DTD/svg11.dtd">
<svg version="1.1" id="Layer_1" xmlns="http://www.w3.org/2000/svg" xmlns:xlink="http://www.w3.org/1999/xlink" x="0px" y="0px"
	 width="24.394px" height="32px" viewBox="0 0 24.394 32" style="enable-background:new 0 0 24.394 32;" xml:space="preserve">
<g>
	<path style="fill:#231F20;" d="M9.197,17.073h5.507V13.62H9.197V17.073z M12.93,14.082h1.357v2.53H12.93V14.082z M11.271,14.082
		h1.358v2.53h-1.358V14.082z M9.658,14.082h1.358v2.53H9.658V14.082z"/>
	<rect x="6.545" y="25.57" style="fill:#231F20;" width="3.532" height="1.359"/>
	<path style="fill:#231F20;" d="M10.077,28.7v-1.063H6.545V28.7c-1.176,0.631-1.977,1.872-1.977,3.3c5.594,0,3.681,0,7.486,0
		C12.054,30.572,11.254,29.331,10.077,28.7z"/>
	<rect x="14.748" y="25.57" style="fill:#231F20;" width="3.532" height="1.359"/>
	<path style="fill:#231F20;" d="M18.28,28.7v-1.063h-3.532V28.7c-1.176,0.631-1.977,1.872-1.977,3.3c5.594,0,3.681,0,7.487,0
		C20.258,30.572,19.456,29.331,18.28,28.7z"/>
	<path style="fill:#231F20;" d="M24.369,20.498c0-0.006,0.001-0.012,0.001-0.018c0-0.557-0.451-1.009-1.009-1.009h-0.151V9.999
		c0-0.622-0.503-1.125-1.124-1.125c-0.046,0-2.627,0-3.142,0h-0.09h-3.977V6.399c1.203,0,2.354,0,3.374,0
		c0-3.526-2.852-6.386-6.375-6.398V0c-0.002,0-0.004,0-0.007,0c-0.003,0-0.006,0-0.009,0c-0.002,0-0.006,0-0.008,0s-0.005,0-0.007,0
		v0.001C8.324,0.014,5.472,2.873,5.472,6.399c1.116,0,2.388,0,3.714,0v2.475H5.538H5.441c-0.53,0-3.088,0-3.134,0
		c-0.621,0-1.125,0.503-1.125,1.125v9.472H1.032c-0.558,0-1.009,0.452-1.009,1.009c0,0.006,0.002,0.011,0.002,0.018
		C0.01,20.559,0,20.623,0,20.689v1.23c0,0.448,0.363,0.811,0.811,0.811c0.449,0,0.812-0.363,0.812-0.811v-0.43h1.322v0.43
		c0,0.448,0.364,0.811,0.812,0.811s0.811-0.363,0.811-0.811v-1.23c0-0.036-0.006-0.07-0.01-0.104c0.004-0.035,0.01-0.068,0.01-0.104
		c0-0.557-0.452-1.009-1.009-1.009H3.432v-8.093h1.377v8.83c0,0.89,0.721,1.611,1.611,1.611H6.47v3.125h3.532v-3.125h4.671v3.125
		h3.532V21.8c0.777-0.116,1.374-0.783,1.374-1.592v-8.83h1.384v8.093h-0.127c-0.557,0-1.008,0.452-1.008,1.009
		c0,0.036,0.007,0.069,0.01,0.104c-0.004,0.035-0.01,0.069-0.01,0.104v1.229c0,0.449,0.363,0.813,0.812,0.813
		c0.448,0,0.811-0.363,0.811-0.813v-0.429h1.322v0.429c0,0.449,0.363,0.813,0.812,0.813c0.448,0,0.812-0.363,0.812-0.813v-1.229
		C24.394,20.623,24.384,20.559,24.369,20.498z M8.657,13.064h6.586v1.065c0.189,0,0.712-0.056,0.712,0.437v1.65
		c0,0.408-0.494,0.368-0.712,0.368v1.046H8.657V13.064z"/>
</g>
<g>
</g>
<g>
</g>
<g>
</g>
<g>
</g>
<g>
</g>
<g>
</g>
<g>
</g>
<g>
</g>
<g>
</g>
<g>
</g>
<g>
</g>
<g>
</g>
<g>
</g>
<g>
</g>
<g>
</g>
</svg>
