<?xml version="1.0" encoding="iso-8859-1"?>
<!-- Generator: Adobe Illustrator 16.0.0, SVG Export Plug-In . SVG Version: 6.00 Build 0)  -->
<!DOCTYPE svg PUBLIC "-//W3C//DTD SVG 1.1//EN" "http://www.w3.org/Graphics/SVG/1.1/DTD/svg11.dtd">
<svg version="1.1" id="Layer_1" xmlns="http://www.w3.org/2000/svg" xmlns:xlink="http://www.w3.org/1999/xlink" x="0px" y="0px"
	 width="16.568px" height="32px" viewBox="0 0 16.568 32" style="enable-background:new 0 0 16.568 32;" xml:space="preserve">
<g>
	<circle style="fill:#231F20;" cx="5.597" cy="8.455" r="0.718"/>
	<path style="fill:#231F20;" d="M8.188,12.792c0.032,0,0.064-0.001,0.097-0.001c0.032,0,0.064,0.001,0.096,0.001
		c3.654,0,6.617-1.788,6.617-3.992c0-1.819-2.017-3.353-4.774-3.834C10.207,4.354,9.494,3.85,8.56,3.75V1.811
		c0.385-0.112,0.668-0.464,0.668-0.885C9.229,0.415,8.814,0,8.303,0C8.296,0,8.291,0.002,8.284,0.002C8.277,0.002,8.271,0,8.264,0
		C7.753,0,7.339,0.415,7.339,0.926c0,0.421,0.283,0.773,0.668,0.885V3.75c-0.934,0.1-1.646,0.604-1.664,1.215
		C3.587,5.447,1.57,6.981,1.57,8.8C1.57,11.004,4.533,12.792,8.188,12.792z M10.971,7.101c0.748,0,1.354,0.606,1.354,1.354
		c0,0.748-0.606,1.354-1.354,1.354c-0.748,0-1.354-0.606-1.354-1.354C9.617,7.707,10.223,7.101,10.971,7.101z M5.597,7.101
		c0.748,0,1.354,0.606,1.354,1.354c0,0.748-0.606,1.354-1.354,1.354c-0.749,0-1.354-0.606-1.354-1.354
		C4.243,7.707,4.849,7.101,5.597,7.101z"/>
	<circle style="fill:#231F20;" cx="10.971" cy="8.455" r="0.718"/>
	<path style="fill:#231F20;" d="M16.255,23.705h-0.028v-0.663h-0.221v-9.504h-2.003v0.332H12.87v-0.332H8.284H3.697v0.332H2.564
		v-0.332H0.562v9.504H0.341v0.663H0.313H0v1.824h0.835v-0.912h1.515v0.912h0.836v-1.824H2.786v-0.663H2.564v-8.15h1.133v8.813h3.758
		v2.809c-3.353,0.239-5.932,1.689-5.932,3.444c0.208,0,0.448,0,0.708,0c-0.003,0.048-0.007,0.096-0.007,0.145
		C2.224,31.149,3.076,32,4.122,32s1.897-0.851,1.897-1.897c0-0.048-0.004-0.096-0.007-0.145c0.134,0,0.269,0,0.405,0
		c-0.003,0.048-0.007,0.096-0.007,0.145c0,1.039,0.839,1.884,1.875,1.896c1.035-0.013,1.875-0.857,1.875-1.896
		c0-0.048-0.003-0.096-0.007-0.145c0.136,0,0.271,0,0.405,0c-0.004,0.048-0.007,0.096-0.007,0.145c0,1.046,0.851,1.897,1.897,1.897
		s1.897-0.851,1.897-1.897c0-0.048-0.004-0.096-0.008-0.145c0.26,0,0.5,0,0.708,0c0-1.755-2.58-3.205-5.931-3.444v-2.809h3.757
		v-8.813h1.133v8.15h-0.221v0.663h-0.401v1.824h0.836v-0.912h1.515v0.912h0.836v-1.824H16.255z M5.949,21.232H5.245V20.5h0.705
		V21.232z M5.949,20.183H5.245v-0.732h0.705V20.183z M7.027,21.232H6.322V20.5h0.705V21.232z M7.027,20.183H6.322v-0.732h0.705
		V20.183z M7.448,21.232V20.5h0.705v0.732H7.448z M8.153,20.183H7.448v-0.732h0.705V20.183z M5.355,30.103
		c0,0.681-0.554,1.234-1.234,1.234c-0.681,0-1.234-0.553-1.234-1.234c0-0.048,0.003-0.097,0.009-0.145c0.716,0,1.551,0,2.45,0
		C5.352,30.006,5.355,30.055,5.355,30.103z M9.496,30.103c0,0.673-0.542,1.221-1.212,1.233c-0.67-0.012-1.212-0.56-1.212-1.233
		c0-0.049,0.003-0.097,0.009-0.145c0.398,0,0.801,0,1.203,0s0.804,0,1.202,0C9.492,30.006,9.496,30.054,9.496,30.103z
		 M13.681,30.103c0,0.681-0.554,1.234-1.234,1.234c-0.68,0-1.234-0.553-1.234-1.234c0-0.048,0.003-0.097,0.009-0.145
		c0.899,0,1.734,0,2.449,0C13.677,30.006,13.681,30.055,13.681,30.103z M9.12,21.232H8.415V20.5H9.12V21.232z M9.12,20.183H8.415
		v-0.732H9.12V20.183z M10.246,21.232H9.541V20.5h0.705V21.232z M10.246,20.183H9.541v-0.732h0.705V20.183z M11.323,21.232h-0.705
		V20.5h0.705V21.232z M11.323,20.183h-0.705v-0.732h0.705V20.183z M11.323,18.336H8.284h-3.04v-2.579h3.04h3.039V18.336z"/>
</g>
<g>
</g>
<g>
</g>
<g>
</g>
<g>
</g>
<g>
</g>
<g>
</g>
<g>
</g>
<g>
</g>
<g>
</g>
<g>
</g>
<g>
</g>
<g>
</g>
<g>
</g>
<g>
</g>
<g>
</g>
</svg>
