<?xml version="1.0" encoding="iso-8859-1"?>
<!-- Generator: Adobe Illustrator 16.0.0, SVG Export Plug-In . SVG Version: 6.00 Build 0)  -->
<!DOCTYPE svg PUBLIC "-//W3C//DTD SVG 1.1//EN" "http://www.w3.org/Graphics/SVG/1.1/DTD/svg11.dtd">
<svg version="1.1" id="Layer_1" xmlns="http://www.w3.org/2000/svg" xmlns:xlink="http://www.w3.org/1999/xlink" x="0px" y="0px"
	 width="22.938px" height="32px" viewBox="0 0 22.938 32" style="enable-background:new 0 0 22.938 32;" xml:space="preserve">
<g>
	<path style="fill:#231F20;" d="M19.077,28.365c0.319-0.234,0.526-0.611,0.526-1.038c0-0.562-0.361-1.035-0.862-1.212
		c0.5-0.177,0.862-0.649,0.862-1.211c0-0.565-0.366-1.04-0.872-1.214c0.506-0.174,0.872-0.649,0.872-1.214
		c0-0.054-0.004-0.106-0.011-0.158c2.064-2.03,3.345-4.854,3.345-7.978c-3.135,0-7.271,0-11.452,0c-0.011,0-0.022,0-0.033,0
		c-4.181,0-8.318,0-11.453,0c0,3.124,1.28,5.946,3.344,7.976c-0.005,0.049-0.009,0.099-0.009,0.149c0,0.565,0.366,1.04,0.872,1.214
		c-0.506,0.175-0.872,0.649-0.872,1.214c0,0.562,0.36,1.035,0.861,1.212c-0.501,0.177-0.861,0.65-0.861,1.211
		c0,0.426,0.207,0.802,0.525,1.038c-1.629,0.408-2.837,1.878-2.837,3.633c5.605,0,3.688,0,7.501,0c0-1.625-1.037-3.006-2.483-3.526
		c0.415-0.215,0.698-0.646,0.698-1.146c0-0.562-0.36-1.034-0.862-1.211c0.501-0.177,0.862-0.65,0.862-1.212
		c0-0.105-0.017-0.206-0.041-0.304c1.375,0.604,2.894,0.941,4.493,0.941c0.092,0,0.182-0.004,0.273-0.007
		c0.094,0.002,0.188,0.007,0.282,0.007c1.6,0,3.12-0.338,4.496-0.942c-0.026,0.101-0.043,0.207-0.043,0.315
		c0,0.562,0.361,1.035,0.862,1.211c-0.501,0.177-0.862,0.65-0.862,1.212c0,0.499,0.284,0.931,0.699,1.146
		c-1.446,0.52-2.483,1.9-2.483,3.527c3.813,0,1.896,0,7.501,0C21.916,30.244,20.707,28.773,19.077,28.365z"/>
	<path style="fill:#231F20;" d="M5.573,5.454c0.052,0.34,0.302,1.758,0.974,3.021c-1.182,1.229-1.911,2.899-1.911,4.74
		c1.979,0,4.414,0,6.816,0c0.011,0,0.022,0,0.033,0c2.401,0,4.836,0,6.816,0c0-1.839-0.727-3.507-1.908-4.737
		c0.671-1.261,0.919-2.675,0.972-3.015c1.237-0.273,2.164-1.375,2.164-2.693c0-1.525-1.236-2.76-2.76-2.76s-2.76,1.235-2.76,2.76
		c0,1.301,0.902,2.39,2.114,2.681c-0.075,0.415-0.276,1.337-0.685,2.2c-1.114-0.799-2.478-1.271-3.952-1.277v0
		c-0.002,0-0.005,0-0.007,0c-0.003,0-0.006,0-0.009,0c-0.003,0-0.006,0-0.009,0c-0.002,0-0.005,0-0.007,0v0
		C9.98,6.38,8.618,6.852,7.504,7.648C7.093,6.783,6.892,5.857,6.815,5.441C8.028,5.15,8.929,4.062,8.929,2.76
		C8.929,1.236,7.694,0,6.169,0S3.41,1.236,3.41,2.76C3.41,4.08,4.336,5.181,5.573,5.454z M14.864,2.771
		c0-1.051,0.853-1.904,1.904-1.904s1.904,0.853,1.904,1.904c0,1.052-0.853,1.904-1.904,1.904S14.864,3.822,14.864,2.771z
		 M8.309,11.122h3.144h0.033h3.144v0.941h-3.144h-0.033H8.309V11.122z M6.169,0.856c1.052,0,1.904,0.853,1.904,1.904
		c0,1.052-0.853,1.905-1.904,1.905c-1.051,0-1.904-0.853-1.904-1.905C4.266,1.709,5.118,0.856,6.169,0.856z"/>
	<circle style="fill:#231F20;" cx="6.169" cy="2.76" r="0.862"/>
	<circle style="fill:#231F20;" cx="16.768" cy="2.771" r="0.862"/>
</g>
<g>
</g>
<g>
</g>
<g>
</g>
<g>
</g>
<g>
</g>
<g>
</g>
<g>
</g>
<g>
</g>
<g>
</g>
<g>
</g>
<g>
</g>
<g>
</g>
<g>
</g>
<g>
</g>
<g>
</g>
</svg>
