<?xml version="1.0" encoding="utf-8"?>
<!-- Generator: Adobe Illustrator 16.0.4, SVG Export Plug-In . SVG Version: 6.00 Build 0)  -->
<!DOCTYPE svg PUBLIC "-//W3C//DTD SVG 1.1//EN" "http://www.w3.org/Graphics/SVG/1.1/DTD/svg11.dtd">
<svg version="1.1" id="Layer_1" xmlns="http://www.w3.org/2000/svg" xmlns:xlink="http://www.w3.org/1999/xlink" x="0px" y="0px"
	 width="22.611px" height="32px" viewBox="0 0 22.611 32" enable-background="new 0 0 22.611 32" xml:space="preserve">
<path fill="#231F20" d="M12.939,24.156h4.35l0.405-9.652c0.272,0.228,0.623,0.365,1.007,0.365c0.867,0,1.569-0.703,1.569-1.57
	c0-0.867-0.703-1.57-1.569-1.57c-0.737,0-1.354,0.509-1.523,1.194h-5.858h-0.024H5.435c-0.169-0.685-0.786-1.194-1.522-1.194
	c-0.868,0-1.571,0.703-1.571,1.57c0,0.867,0.703,1.57,1.571,1.57c0.383,0,0.733-0.138,1.006-0.365l0.406,9.652h4.349v2.342H3.909V32
	h7.385h0.024h7.386v-5.502h-5.766V24.156z M9.148,18.027l0.01-0.258c-0.267-0.055-0.519-0.166-0.737-0.33l-0.182,0.168
	c-0.038,0.037-0.1,0.035-0.136-0.004L7.79,17.27c-0.035-0.037-0.032-0.102,0.005-0.137l0.176-0.164
	c-0.151-0.229-0.25-0.491-0.289-0.763L7.45,16.197c-0.054-0.001-0.095-0.046-0.094-0.099l0.017-0.457
	c0.002-0.054,0.046-0.095,0.1-0.094l0.231,0.008c0.057-0.271,0.175-0.526,0.344-0.746l-0.159-0.171
	c-0.018-0.019-0.027-0.043-0.026-0.069c0.001-0.026,0.013-0.05,0.031-0.067l0.334-0.313c0.039-0.036,0.101-0.034,0.136,0.005
	l0.165,0.176c0.229-0.146,0.486-0.239,0.754-0.274l0.007-0.235c0.002-0.054,0.046-0.095,0.1-0.093l0.458,0.016
	c0.053,0.002,0.094,0.046,0.093,0.1l-0.008,0.243c0.262,0.059,0.508,0.174,0.721,0.337l0.188-0.176
	c0.019-0.018,0.044-0.027,0.07-0.026c0.024,0,0.049,0.012,0.066,0.03l0.122,0.131l0.19,0.204c0.036,0.039,0.034,0.1-0.004,0.136
	L11.1,14.938l-0.006,0.005c0.002,0.003,0.003,0.007,0.006,0.011c0.139,0.221,0.231,0.469,0.269,0.727l0.271,0.01
	c0.054,0.002,0.095,0.046,0.093,0.099l-0.016,0.458c-0.002,0.053-0.046,0.095-0.1,0.092l-0.271-0.008
	c-0.045,0.212-0.13,0.415-0.246,0.6c-0.023,0.037-0.048,0.075-0.075,0.112l0.075,0.08l0.11,0.118c0.036,0.039,0.034,0.1-0.005,0.136
	L11.1,17.477l-0.229,0.213c-0.02,0.019-0.043,0.027-0.07,0.026c-0.025-0.001-0.049-0.012-0.066-0.03l-0.179-0.191
	c-0.225,0.15-0.479,0.249-0.748,0.29L9.798,18.05c-0.001,0.054-0.047,0.095-0.1,0.093L9.24,18.128
	C9.187,18.126,9.146,18.081,9.148,18.027z M9.607,20.846L9.625,20.3c0.002-0.063,0.055-0.112,0.119-0.11l0.274,0.01
	c0.068-0.322,0.208-0.626,0.41-0.887l-0.19-0.203c-0.021-0.022-0.031-0.053-0.03-0.084c0.001-0.029,0.015-0.059,0.037-0.08
	l0.397-0.371c0.046-0.043,0.119-0.04,0.162,0.006l0.196,0.21c0.032-0.021,0.064-0.037,0.099-0.056
	c0.247-0.139,0.518-0.234,0.797-0.271l0.011-0.279c0.001-0.062,0.055-0.113,0.118-0.11l0.543,0.019
	c0.064,0.002,0.113,0.055,0.111,0.119L12.67,18.5c0.311,0.07,0.604,0.207,0.857,0.4l0.225-0.209
	c0.021-0.021,0.051-0.032,0.082-0.031c0.029,0.001,0.059,0.014,0.08,0.037l0.372,0.398c0.043,0.045,0.041,0.117-0.007,0.161
	l-0.228,0.214c0.17,0.264,0.281,0.565,0.326,0.877l0.322,0.012c0.063,0.002,0.113,0.056,0.11,0.119l-0.019,0.545
	c-0.002,0.062-0.056,0.112-0.118,0.109l-0.322-0.011c-0.064,0.305-0.195,0.595-0.381,0.849l0.22,0.233
	c0.042,0.047,0.04,0.119-0.006,0.162l-0.397,0.373c-0.022,0.021-0.053,0.032-0.082,0.03c-0.031-0.002-0.06-0.015-0.08-0.037
	l-0.214-0.229c-0.269,0.178-0.571,0.296-0.89,0.346l-0.011,0.316c-0.002,0.062-0.056,0.113-0.119,0.109l-0.544-0.018
	c-0.062-0.002-0.113-0.056-0.111-0.119l0.012-0.308c-0.229-0.046-0.446-0.129-0.648-0.244c-0.079-0.045-0.156-0.093-0.229-0.147
	l-0.214,0.201c-0.048,0.043-0.12,0.041-0.162-0.006l-0.372-0.398c-0.042-0.043-0.039-0.12,0.006-0.161l0.209-0.196
	c-0.181-0.273-0.298-0.583-0.344-0.906L9.72,20.961C9.654,20.961,9.604,20.908,9.607,20.846z M17.996,27.206v4.086h-6.678h-0.024
	H4.617v-4.086h6.677h0.024H17.996z M10.56,15.991c0.02-0.561-0.42-1.031-0.979-1.051c-0.562-0.019-1.031,0.42-1.052,0.981
	c-0.019,0.561,0.421,1.031,0.981,1.05C10.07,16.991,10.54,16.552,10.56,15.991z M9.531,16.341c-0.214-0.007-0.381-0.185-0.372-0.398
	c0.007-0.213,0.186-0.38,0.397-0.373c0.212,0.007,0.379,0.186,0.372,0.398C9.922,16.182,9.744,16.349,9.531,16.341z M12.167,21.884
	c0.667,0.023,1.226-0.499,1.249-1.167c0.022-0.667-0.5-1.227-1.166-1.25c-0.513-0.017-0.958,0.286-1.15,0.729
	c-0.059,0.136-0.094,0.283-0.1,0.438c-0.006,0.185,0.031,0.36,0.1,0.521C11.279,21.57,11.685,21.867,12.167,21.884z M12.225,20.218
	c0.252,0.009,0.451,0.222,0.442,0.474c-0.009,0.254-0.222,0.453-0.476,0.443c-0.253-0.01-0.45-0.222-0.441-0.474
	C11.758,20.407,11.971,20.209,12.225,20.218z M8.592,5.818h0.943v0.884H8.592V5.818z M3.959,20.797l-2.526-0.383l0.127-0.836
	l2.526,0.383L3.959,20.797z M3.785,21.942L1.259,21.56l0.127-0.837l2.526,0.383L3.785,21.942z M3.609,23.102l-2.525-0.385
	l0.127-0.836l2.525,0.384L3.609,23.102z M4.653,16.221l-2.526-0.383l0.127-0.837l2.526,0.383L4.653,16.221z M4.479,17.365
	l-2.526-0.384l0.127-0.836l2.526,0.384L4.479,17.365z M4.303,18.523l-2.525-0.383l0.126-0.836l2.526,0.382L4.303,18.523z
	 M4.129,19.67l-2.526-0.384l0.127-0.837l2.526,0.385L4.129,19.67z M0.263,23.193l3.644,0.474l-0.263,2.021l-0.956-0.125l0.136-1.043
	l-1.732-0.226l-0.135,1.043L0,25.212L0.263,23.193z M11.319,11.125h5.085V3.606H15.51v-1.68h0.894V0h-1.926v1.926h0.569v1.68h-3.729
	h-0.024h-3.71v-1.68h0.569V0H6.229v1.926h0.894v1.68H6.208v7.519h5.085H11.319z M12.907,5.228h2.201v2.044h-2.201V5.228z
	 M7.604,5.228h2.202v2.044H7.604V5.228z M8.351,9.237h2.943h0.024h2.943v0.649h-2.943h-0.024H8.351V9.237z M13.158,5.818h0.942
	v0.884h-0.942V5.818z M18.526,19.96l2.526-0.384l0.127,0.836l-2.526,0.385L18.526,19.96z M18.701,21.106l2.525-0.384l0.127,0.837
	l-2.525,0.384L18.701,21.106z M18.876,22.264l2.526-0.384l0.127,0.837L19.003,23.1L18.876,22.264z M17.833,15.383L20.36,15
	l0.127,0.836l-2.526,0.383L17.833,15.383z M18.004,16.53l2.527-0.384l0.127,0.836l-2.527,0.385L18.004,16.53z M18.183,17.688
	l2.526-0.383l0.126,0.836l-2.525,0.382L18.183,17.688z M18.357,18.832l2.526-0.384l0.127,0.837l-2.526,0.383L18.357,18.832z
	 M22.612,25.212l-0.954,0.125l-0.137-1.043l-1.731,0.226l0.135,1.043l-0.955,0.125l-0.262-2.021l3.643-0.474L22.612,25.212z
	 M8.174,29.286c0,0.478-0.388,0.864-0.865,0.864s-0.865-0.387-0.865-0.864s0.388-0.865,0.865-0.865S8.174,28.809,8.174,29.286z
	 M10.769,29.277c0,0.479-0.387,0.865-0.865,0.865c-0.478,0-0.864-0.387-0.864-0.865c0-0.477,0.387-0.864,0.864-0.864
	C10.382,28.413,10.769,28.801,10.769,29.277z M14.439,29.286c0-0.478,0.388-0.865,0.865-0.865s0.865,0.388,0.865,0.865
	s-0.388,0.864-0.865,0.864S14.439,29.764,14.439,29.286z M11.843,29.277c0-0.477,0.388-0.864,0.865-0.864s0.865,0.388,0.865,0.864
	c0,0.479-0.388,0.865-0.865,0.865S11.843,29.756,11.843,29.277z"/>
</svg>
