<?xml version="1.0" encoding="iso-8859-1"?>
<!-- Generator: Adobe Illustrator 16.0.0, SVG Export Plug-In . SVG Version: 6.00 Build 0)  -->
<!DOCTYPE svg PUBLIC "-//W3C//DTD SVG 1.1//EN" "http://www.w3.org/Graphics/SVG/1.1/DTD/svg11.dtd">
<svg version="1.1" id="Layer_1" xmlns="http://www.w3.org/2000/svg" xmlns:xlink="http://www.w3.org/1999/xlink" x="0px" y="0px"
	 width="23.492px" height="32px" viewBox="0 0 23.492 32" style="enable-background:new 0 0 23.492 32;" xml:space="preserve">
<g>
	<circle style="fill:#231F20;" cx="9.686" cy="7.853" r="0.887"/>
	<path style="fill:#231F20;" d="M12.952,17.53c-0.842-0.029-1.549,0.631-1.578,1.473c-0.029,0.844,0.631,1.55,1.474,1.579
		c0.843,0.029,1.549-0.631,1.578-1.474S13.795,17.559,12.952,17.53z M12.88,19.635c-0.32-0.011-0.57-0.279-0.559-0.599
		c0.011-0.32,0.279-0.57,0.599-0.56c0.319,0.011,0.57,0.28,0.559,0.6C13.468,19.395,13.2,19.646,12.88,19.635z"/>
	<path style="fill:#231F20;" d="M22.316,20.823c0.017-0.039,0.035-0.08,0.052-0.12c0.359-0.809,0.699-1.574,0.777-2.622
		c0.047-0.64-0.328-1.346-0.892-1.679c-0.01-0.005-0.019-0.01-0.028-0.016c0.001-0.068,0.002-0.138,0.001-0.209
		c-0.006-0.697-0.271-1.149-0.858-1.466c-0.106-0.057-0.21-0.104-0.314-0.14c-0.167-0.34-0.438-0.647-0.689-0.862
		C20.12,13.5,19.63,13.156,19.113,13.2c-0.396,0.033-0.794,0.25-1.145,0.44c-0.068,0.037-0.134,0.073-0.196,0.105
		c-0.066,0.034-0.137,0.078-0.209,0.125c-0.154-0.171-0.316-0.333-0.485-0.486c1.072-0.694,1.906-1.648,2.376-2.756
		c0.933-0.079,1.672-1.158,1.672-2.48c0-1.375-0.798-2.489-1.783-2.489c-0.097,0-0.192,0.014-0.286,0.035
		c-1.15-1.862-3.396-3.138-5.989-3.188v-1.27h0.614V0H12.88h-0.02h-0.804v1.235h0.615v1.27c-2.594,0.051-4.838,1.327-5.989,3.188
		C6.589,5.673,6.494,5.659,6.396,5.659c-0.985,0-1.782,1.114-1.782,2.489c0,1.323,0.739,2.402,1.671,2.48
		c0.47,1.108,1.305,2.062,2.376,2.756c-0.105,0.095-0.208,0.194-0.308,0.296c-0.653-0.18-1.332-0.308-2.068-0.179
		c-0.522,0.092-2.11,0.373-2.619,1.532c-0.209,0.475-0.228,1.006-0.067,1.468c-0.334,0.239-0.607,0.537-0.775,0.854
		c-0.221,0.417-0.259,0.848-0.123,1.248c-0.713,0.542-0.931,1.548-0.992,2.274C0.741,21.097,0.012,21.96,0,22.994h0.965
		c0.014-0.667,0.559-1.206,1.229-1.206c0.67,0,1.216,0.539,1.229,1.206h0.965c-0.013-1.156-0.924-2.099-2.067-2.165
		c0.057-0.568,0.224-1.285,0.686-1.688c0.11,0.135,0.243,0.264,0.398,0.383c0.176,0.135,0.712,0.545,1.314,0.24
		c0.417-0.21,0.631-0.535,0.577-0.869c-0.031-0.191-0.136-0.354-0.301-0.47c-0.494-0.344-1.412-0.181-1.515-0.161
		C3.399,18.28,3.323,18.3,3.248,18.324c-0.05-0.221-0.013-0.452,0.111-0.686c0.116-0.219,0.305-0.427,0.537-0.601
		c0.332,0.411,0.834,0.632,1.392,0.617c0.442-0.014,0.957-0.24,1.176-0.573c-0.183,0.692-0.283,1.427-0.283,2.189
		c0,2.955,1.484,5.509,3.641,6.728v4.121C9.037,30.385,8.471,31.125,8.471,32c1.296,0,2.76,0,3.978,0
		c0-0.931-0.641-1.711-1.507-1.927v-3.587c0.552,0.176,1.133,0.272,1.733,0.272c0.066,0,0.131-0.003,0.196-0.006
		c0.064,0.002,0.13,0.006,0.195,0.006c0.601,0,1.181-0.096,1.733-0.272v3.587c-0.865,0.216-1.507,0.996-1.507,1.927
		c1.218,0,2.683,0,3.978,0c0-0.875-0.565-1.615-1.35-1.882v-4.121c2.156-1.219,3.64-3.773,3.64-6.728
		c0-1.071-0.196-2.089-0.548-3.011c0.059,0.061,0.129,0.116,0.212,0.162c0.348,0.194,0.875,0.217,1.201,0.054
		c0.422-0.211,0.741-0.692,0.789-1.154c0.293,0.196,0.407,0.444,0.411,0.863c0,0.01,0,0.02,0,0.03
		c-0.247-0.005-0.482,0.062-0.7,0.204c-0.345,0.226-0.886,0.769-0.725,1.376c0.086,0.326,0.317,0.539,0.633,0.585
		c0.378,0.055,0.809-0.154,1.01-0.483c0.141-0.231,0.244-0.505,0.307-0.82c0.258,0.249,0.418,0.624,0.394,0.959
		c-0.069,0.944-0.374,1.629-0.726,2.423c-0.024,0.052-0.047,0.106-0.071,0.16c-1.151-0.242-2.294,0.472-2.579,1.618l0.939,0.222
		c0.167-0.646,0.821-1.044,1.474-0.891c0.653,0.155,1.06,0.805,0.918,1.457l0.939,0.223C23.66,22.26,23.176,21.274,22.316,20.823z
		 M3.594,18.856c0.364-0.069,0.872-0.064,1.056,0.064c0.042,0.03,0.049,0.053,0.053,0.073c0.005,0.033-0.08,0.146-0.255,0.233
		c-0.131,0.067-0.313,0.096-0.676-0.181c-0.078-0.06-0.147-0.12-0.208-0.184C3.573,18.861,3.583,18.858,3.594,18.856z M5.268,17.051
		c-0.335,0.011-0.626-0.101-0.838-0.319c0.417-0.172,0.882-0.229,1.297-0.092c0.142,0.047,0.206,0.091,0.233,0.114
		C5.891,16.859,5.572,17.042,5.268,17.051z M6.572,16.706C6.56,16.51,6.436,16.24,5.917,16.068
		c-0.591-0.196-1.227-0.114-1.779,0.129c-0.075-0.294-0.049-0.622,0.083-0.921c0.255-0.582,0.965-0.968,2.171-1.181
		c0.521-0.091,1.017-0.028,1.516,0.092C7.328,14.91,6.87,15.764,6.572,16.706z M11.485,10.637h2.741v1.326h-2.741V10.637z
		 M8.178,7.853c0-0.832,0.675-1.507,1.507-1.507c0.833,0,1.508,0.675,1.508,1.507c0,0.833-0.675,1.508-1.508,1.508
		C8.854,9.361,8.178,8.686,8.178,7.853z M16.164,19.494c-0.003,0.08-0.07,0.142-0.15,0.139l-0.407-0.014
		c-0.083,0.386-0.247,0.752-0.481,1.071l0.277,0.297c0.054,0.059,0.051,0.15-0.007,0.205l-0.503,0.47
		c-0.028,0.026-0.065,0.04-0.104,0.039s-0.074-0.018-0.101-0.045l-0.269-0.288c-0.338,0.225-0.723,0.374-1.124,0.436l-0.013,0.4
		c-0.003,0.08-0.07,0.143-0.15,0.14l-0.688-0.023c-0.08-0.003-0.143-0.069-0.14-0.15l0.013-0.389
		c-0.399-0.082-0.778-0.25-1.108-0.495l-0.27,0.253c-0.059,0.054-0.15,0.051-0.205-0.007l-0.47-0.503
		c-0.053-0.056-0.049-0.152,0.007-0.205l0.265-0.246c-0.229-0.347-0.377-0.738-0.435-1.147l-0.347-0.012
		c-0.079-0.003-0.142-0.07-0.14-0.15l0.023-0.688c0.003-0.08,0.07-0.143,0.15-0.139l0.347,0.012
		c0.086-0.408,0.264-0.792,0.518-1.122l-0.239-0.257c-0.026-0.027-0.041-0.065-0.039-0.103c0.001-0.039,0.018-0.075,0.046-0.101
		l0.502-0.47c0.059-0.055,0.151-0.051,0.205,0.006l0.248,0.266c0.344-0.219,0.731-0.359,1.132-0.412l0.012-0.353
		c0.003-0.08,0.069-0.143,0.149-0.14l0.688,0.024c0.08,0.002,0.143,0.07,0.14,0.149l-0.013,0.365
		c0.393,0.088,0.764,0.261,1.084,0.506l0.283-0.264c0.028-0.026,0.065-0.041,0.104-0.039c0.039,0.001,0.075,0.018,0.101,0.045
		l0.47,0.503c0.055,0.058,0.051,0.15-0.007,0.205l-0.288,0.27c0.215,0.336,0.356,0.715,0.412,1.109l0.407,0.014
		c0.08,0.002,0.143,0.07,0.14,0.15L16.164,19.494z M15.919,9.361c-0.833,0-1.508-0.675-1.508-1.508c0-0.832,0.675-1.507,1.508-1.507
		s1.508,0.675,1.508,1.507C17.427,8.686,16.752,9.361,15.919,9.361z M18.808,15.772c-0.237-0.517-0.526-0.998-0.858-1.434
		c0.036-0.022,0.069-0.042,0.099-0.057c0.065-0.035,0.135-0.072,0.207-0.111c0.298-0.163,0.638-0.347,0.91-0.37
		c0.209-0.017,0.521,0.123,0.809,0.368c0.115,0.098,0.221,0.207,0.311,0.32c-0.143,0.022-0.285,0.063-0.427,0.127
		C19.677,14.697,18.797,15.125,18.808,15.772z M20.155,15.936c-0.134,0.068-0.449,0.064-0.638-0.041
		c-0.103-0.058-0.107-0.109-0.109-0.126c-0.013-0.145,0.326-0.438,0.696-0.603c0.135-0.06,0.266-0.09,0.401-0.09
		c0.032,0,0.065,0.002,0.098,0.005c0.007,0.031,0.011,0.062,0.014,0.09C20.636,15.445,20.42,15.804,20.155,15.936z M21.328,17.583
		c-0.076,0.125-0.269,0.22-0.409,0.201c-0.054-0.008-0.107-0.031-0.137-0.144c-0.057-0.215,0.201-0.54,0.473-0.718
		c0.106-0.07,0.216-0.105,0.329-0.107C21.537,17.123,21.451,17.382,21.328,17.583z"/>
	<circle style="fill:#231F20;" cx="15.919" cy="7.853" r="0.887"/>
</g>
<g>
</g>
<g>
</g>
<g>
</g>
<g>
</g>
<g>
</g>
<g>
</g>
<g>
</g>
<g>
</g>
<g>
</g>
<g>
</g>
<g>
</g>
<g>
</g>
<g>
</g>
<g>
</g>
<g>
</g>
</svg>
