<?xml version="1.0" encoding="iso-8859-1"?>
<!-- Generator: Adobe Illustrator 16.0.0, SVG Export Plug-In . SVG Version: 6.00 Build 0)  -->
<!DOCTYPE svg PUBLIC "-//W3C//DTD SVG 1.1//EN" "http://www.w3.org/Graphics/SVG/1.1/DTD/svg11.dtd">
<svg version="1.1" id="Layer_1" xmlns="http://www.w3.org/2000/svg" xmlns:xlink="http://www.w3.org/1999/xlink" x="0px" y="0px"
	 width="32px" height="24.908px" viewBox="0 0 32 24.908" style="enable-background:new 0 0 32 24.908;" xml:space="preserve">
<g>
	<path style="fill:#231F20;" d="M16.128,7.023h5.611V4.953c0-1.65-1.109-3.039-2.622-3.466c0.095-0.15,0.151-0.328,0.151-0.519
		C19.269,0.433,18.835,0,18.3,0c-0.534,0-0.968,0.433-0.968,0.968c0,0.136,0.029,0.266,0.079,0.384l-2.584,0.001
		c0.05-0.117,0.079-0.246,0.079-0.382c0-0.535-0.433-0.968-0.968-0.968s-0.968,0.434-0.968,0.968c0,0.191,0.056,0.369,0.151,0.519
		C11.609,1.917,10.5,3.306,10.5,4.956v2.071h5.628V7.023z"/>
	<path style="fill:#231F20;" d="M29.971,18.374c0.027-1.365-0.075-5.597-2.231-8.002c-0.893-0.996-2.012-1.569-3.333-1.711
		c-0.689-0.79-1.776-1.277-2.892-1.277L10.726,7.387c-1.104,0-2.179,0.477-2.869,1.251c-1.435,0.091-2.645,0.673-3.595,1.734
		c-2.157,2.405-2.259,6.637-2.232,8.002C0.85,18.741,0,19.748,0,20.932c0,0.023,0.003,0.044,0.004,0.067h1.601
		c-0.002-0.022-0.006-0.044-0.006-0.067c0-0.612,0.633-1.11,1.41-1.11s1.41,0.498,1.41,1.11c0,0.023-0.004,0.044-0.006,0.067h1.601
		c0-0.022,0.004-0.044,0.004-0.067c0-1.078-0.705-2.008-1.719-2.443c-0.057-1.421,0.134-4.917,1.652-6.609
		c0.343-0.382,0.736-0.649,1.187-0.81c0.286,1.999,0.762,2.959,1.479,4.522c0.356,0.776,0.692,1.515,1.113,2.109H9.72v1.769v0.097
		v1.834c-0.089-0.006-0.178-0.01-0.268-0.01c-1.943,0-3.519,1.574-3.519,3.518c5.258,0,3.46,0,7.037,0
		c0-0.908-0.345-1.736-0.91-2.36v-2.981h1.081V19.04l5.956-0.002v0.526h1.081v2.981c-0.565,0.624-0.91,1.452-0.91,2.36
		c3.577,0,1.779,0,7.037,0c0-1.943-1.575-3.519-3.519-3.519c-0.09,0-0.179,0.004-0.268,0.011v-1.834v-0.097v-1.769H22.51
		c0.421-0.594,0.757-1.333,1.113-2.109c0.706-1.539,1.178-2.495,1.466-4.429c0.357,0.164,0.676,0.402,0.961,0.719
		c1.518,1.691,1.709,5.188,1.652,6.609c-1.015,0.436-1.719,1.366-1.719,2.443c0,0.023,0.003,0.044,0.004,0.067h1.601
		c-0.002-0.022-0.006-0.044-0.006-0.067c0-0.612,0.633-1.11,1.41-1.11s1.409,0.498,1.409,1.11c0,0.023-0.004,0.044-0.006,0.067
		h1.601c0-0.022,0.004-0.044,0.004-0.067C32,19.748,31.15,18.741,29.971,18.374z M16.128,13.1v0.003h-5.747v-0.735h5.729v-0.003
		h5.747V13.1H16.128z M20.806,14.271v0.735h-4.678v0.003h-4.695v-0.735h4.678v-0.003H20.806z M16.128,17.019h-3.751v-0.735h3.734
		V16.28h3.751v0.735h-3.734V17.019z M23.06,11.142h-6.932v0.003H9.18v-0.735h6.931v-0.003h6.949V11.142z"/>
</g>
<g>
</g>
<g>
</g>
<g>
</g>
<g>
</g>
<g>
</g>
<g>
</g>
<g>
</g>
<g>
</g>
<g>
</g>
<g>
</g>
<g>
</g>
<g>
</g>
<g>
</g>
<g>
</g>
<g>
</g>
</svg>
