<?xml version="1.0" encoding="iso-8859-1"?>
<!-- Generator: Adobe Illustrator 16.0.0, SVG Export Plug-In . SVG Version: 6.00 Build 0)  -->
<!DOCTYPE svg PUBLIC "-//W3C//DTD SVG 1.1//EN" "http://www.w3.org/Graphics/SVG/1.1/DTD/svg11.dtd">
<svg version="1.1" id="Layer_1" xmlns="http://www.w3.org/2000/svg" xmlns:xlink="http://www.w3.org/1999/xlink" x="0px" y="0px"
	 width="32px" height="27.496px" viewBox="0 0 32 27.496" style="enable-background:new 0 0 32 27.496;" xml:space="preserve">
<path style="fill:#231F20;" d="M29.858,17.474c0.029-1.441-0.08-5.908-2.355-8.447c-0.946-1.055-2.134-1.661-3.535-1.808
	c-0.339-1.066-1.336-1.838-2.514-1.838h-0.038V3.586c0-1.98-1.605-3.585-3.585-3.585L16,0l-1.832,0.001
	c-1.979,0-3.584,1.605-3.584,3.585V5.38h-0.038c-1.178,0-2.175,0.772-2.515,1.838C6.631,7.365,5.443,7.972,4.498,9.026
	c-2.276,2.54-2.385,7.006-2.356,8.447C0.898,17.861,0,18.924,0,20.174c0,0.024,0.003,0.047,0.004,0.071h1.689
	c-0.001-0.023-0.006-0.047-0.006-0.071c0-0.646,0.667-1.171,1.487-1.171c0.821,0,1.489,0.525,1.489,1.171
	c0,0.024-0.005,0.047-0.007,0.071h1.689c0-0.023,0.005-0.047,0.005-0.071c0-1.137-0.744-2.119-1.815-2.578
	c-0.06-1.5,0.142-5.191,1.744-6.977c0.455-0.506,0.991-0.823,1.627-0.962v7.181c0,1.458,1.182,2.64,2.639,2.64h0.521v2.039
	c-0.376,0.293-0.613,0.713-0.613,1.181c0,0.467,0.236,0.887,0.613,1.182v3.616h2.391v-3.489c0.482-0.292,0.797-0.769,0.797-1.309
	c0-0.54-0.315-1.017-0.797-1.309v-1.911H16h2.542v1.911c-0.482,0.292-0.797,0.769-0.797,1.309c0,0.54,0.315,1.017,0.797,1.309v3.489
	h2.391V23.88c0.376-0.295,0.613-0.715,0.613-1.182c0-0.468-0.237-0.888-0.613-1.181v-2.039h0.521c1.457,0,2.639-1.182,2.639-2.64
	V9.657c0.636,0.139,1.172,0.456,1.627,0.962c1.603,1.785,1.805,5.476,1.744,6.977c-1.071,0.459-1.815,1.441-1.815,2.578
	c0,0.024,0.004,0.047,0.005,0.071h1.69c-0.002-0.023-0.007-0.047-0.007-0.071c0-0.646,0.668-1.171,1.489-1.171
	c0.82,0,1.488,0.525,1.488,1.171c0,0.024-0.004,0.047-0.006,0.071h1.689C31.997,20.221,32,20.198,32,20.174
	C32,18.924,31.103,17.861,29.858,17.474z M12.985,16.815c-0.907,0-1.642-0.736-1.642-1.642V9.686c0-0.907,0.735-1.642,1.642-1.642
	H16h3.015c0.907,0,1.643,0.735,1.643,1.642v5.487c0,0.906-0.735,1.642-1.643,1.642H16H12.985z"/>
<g>
</g>
<g>
</g>
<g>
</g>
<g>
</g>
<g>
</g>
<g>
</g>
<g>
</g>
<g>
</g>
<g>
</g>
<g>
</g>
<g>
</g>
<g>
</g>
<g>
</g>
<g>
</g>
<g>
</g>
</svg>
